<?xml version="1.0" encoding="UTF-8" standalone="no"?>
<!DOCTYPE svg PUBLIC "-//W3C//DTD SVG 1.1//EN"
 "http://www.w3.org/Graphics/SVG/1.1/DTD/svg11.dtd">
<!-- Generated by graphviz version 2.42.4 (0)
 -->
<!-- Pages: 1 -->
<svg width="382pt" height="218pt"
 viewBox="0.00 0.00 381.54 218.00" xmlns="http://www.w3.org/2000/svg" xmlns:xlink="http://www.w3.org/1999/xlink">

<svg id="main" version="1.1" xmlns="http://www.w3.org/2000/svg" xmlns:xlink="http://www.w3.org/1999/xlink" xml:space="preserve" onload="init(evt)">
<style type="text/css"><![CDATA[
.node, .edge {opacity: 0.7;}
.node.selected, .edge.selected {opacity: 1;}
.edge:hover path { stroke: red; }
.edge:hover polygon { stroke: red; fill: red; }
]]></style>
<script type="application/ecmascript" xlink:href="svg.min.js"/>
<svg id="graph" class="graph">
<g id="graph0" class="graph" transform="scale(1 1) rotate(0) translate(4 214)">
<polygon fill="white" stroke="transparent" points="-4,4 -4,-214 377.54,-214 377.54,4 -4,4"/>
<!-- pivot -->
<g id="node1" class="node">
<title>pivot</title>
<ellipse fill="none" stroke="black" cx="312.54" cy="-192" rx="34.39" ry="18"/>
<text text-anchor="middle" x="312.54" y="-188.3" font-family="Times,serif" font-size="14.00">pivot</text>
</g>
<!-- child -->
<g id="node2" class="node">
<title>child</title>
<ellipse fill="none" stroke="black" cx="164.54" cy="-105" rx="33.29" ry="18"/>
<text text-anchor="middle" x="164.54" y="-101.3" font-family="Times,serif" font-size="14.00">child</text>
</g>
<!-- pivot&#45;&gt;child -->
<g id="edge1" class="edge">
<title>pivot&#45;&gt;child</title>
<path fill="none" stroke="black" d="M290.07,-178.09C264.82,-163.59 223.69,-139.97 195.43,-123.74"/>
<polygon fill="black" stroke="black" points="197.16,-120.7 186.75,-118.75 193.68,-126.77 197.16,-120.7"/>
<text text-anchor="middle" x="265.54" y="-144.8" font-family="Times,serif" font-size="14.00">right</text>
</g>
<!-- A -->
<g id="node3" class="node">
<title>A</title>
<ellipse fill="none" stroke="black" cx="346.54" cy="-18" rx="27" ry="18"/>
<text text-anchor="middle" x="346.54" y="-14.3" font-family="Times,serif" font-size="14.00">A</text>
</g>
<!-- pivot&#45;&gt;A -->
<g id="edge2" class="edge">
<title>pivot&#45;&gt;A</title>
<path fill="none" stroke="black" d="M321.18,-174.47C327.76,-161 336.37,-141.3 340.54,-123 346.36,-97.47 347.52,-67.56 347.43,-46.38"/>
<polygon fill="black" stroke="black" points="350.92,-46.13 347.28,-36.18 343.92,-46.22 350.92,-46.13"/>
<text text-anchor="middle" x="358.04" y="-101.3" font-family="Times,serif" font-size="14.00">left</text>
</g>
<!-- B -->
<g id="node4" class="node">
<title>B</title>
<ellipse fill="none" stroke="black" cx="228.54" cy="-18" rx="27" ry="18"/>
<text text-anchor="middle" x="228.54" y="-14.3" font-family="Times,serif" font-size="14.00">B</text>
</g>
<!-- child&#45;&gt;B -->
<g id="edge3" class="edge">
<title>child&#45;&gt;B</title>
<path fill="none" stroke="black" d="M176.58,-88.01C186.27,-75.15 200.02,-56.89 210.94,-42.38"/>
<polygon fill="black" stroke="black" points="213.77,-44.44 216.99,-34.34 208.18,-40.23 213.77,-44.44"/>
<text text-anchor="middle" x="213.04" y="-57.8" font-family="Times,serif" font-size="14.00">left</text>
</g>
<!-- C -->
<g id="node5" class="node">
<title>C</title>
<ellipse fill="none" stroke="black" cx="119.54" cy="-18" rx="27" ry="18"/>
<text text-anchor="middle" x="119.54" y="-14.3" font-family="Times,serif" font-size="14.00">C</text>
</g>
<!-- child&#45;&gt;C -->
<g id="edge4" class="edge">
<title>child&#45;&gt;C</title>
<path fill="none" stroke="black" d="M155.87,-87.61C149.39,-75.38 140.43,-58.44 133.02,-44.46"/>
<polygon fill="black" stroke="black" points="135.97,-42.54 128.19,-35.34 129.78,-45.81 135.97,-42.54"/>
<text text-anchor="middle" x="163.54" y="-57.8" font-family="Times,serif" font-size="14.00">right</text>
</g>
<!-- pivot_new -->
<g id="node6" class="node">
<title>pivot_new</title>
<ellipse fill="none" stroke="black" cx="273.54" cy="-105" rx="57.69" ry="18"/>
<text text-anchor="middle" x="273.54" y="-101.3" font-family="Times,serif" font-size="14.00">pivot_new</text>
</g>
<!-- pivot_new&#45;&gt;A -->
<g id="edge7" class="edge">
<title>pivot_new&#45;&gt;A</title>
<path fill="none" stroke="black" d="M287.97,-87.21C299.08,-74.26 314.57,-56.23 326.83,-41.95"/>
<polygon fill="black" stroke="black" points="329.76,-43.92 333.62,-34.05 324.45,-39.36 329.76,-43.92"/>
<text text-anchor="middle" x="326.04" y="-57.8" font-family="Times,serif" font-size="14.00">left</text>
</g>
<!-- pivot_new&#45;&gt;B -->
<g id="edge8" class="edge">
<title>pivot_new&#45;&gt;B</title>
<path fill="none" stroke="black" d="M264.65,-87.21C258.16,-74.94 249.25,-58.1 241.9,-44.22"/>
<polygon fill="black" stroke="black" points="244.88,-42.38 237.11,-35.18 238.7,-45.66 244.88,-42.38"/>
<text text-anchor="middle" x="272.54" y="-57.8" font-family="Times,serif" font-size="14.00">right</text>
</g>
<!-- child_new -->
<g id="node7" class="node">
<title>child_new</title>
<ellipse fill="none" stroke="black" cx="56.54" cy="-105" rx="56.59" ry="18"/>
<text text-anchor="middle" x="56.54" y="-101.3" font-family="Times,serif" font-size="14.00">child_new</text>
</g>
<!-- child_new&#45;&gt;C -->
<g id="edge6" class="edge">
<title>child_new&#45;&gt;C</title>
<path fill="none" stroke="black" d="M68.99,-87.21C78.44,-74.47 91.54,-56.79 102.04,-42.62"/>
<polygon fill="black" stroke="black" points="105.04,-44.45 108.18,-34.33 99.42,-40.28 105.04,-44.45"/>
<text text-anchor="middle" x="110.54" y="-57.8" font-family="Times,serif" font-size="14.00">right</text>
</g>
<!-- child_new&#45;&gt;pivot_new -->
<g id="edge5" class="edge">
<title>child_new&#45;&gt;pivot_new</title>
<path fill="none" stroke="black" d="M83.03,-120.99C101.61,-131.24 127.44,-143.6 152.04,-149 183.52,-155.9 217.93,-141.21 242.07,-126.97"/>
<polygon fill="black" stroke="black" points="244.12,-129.82 250.79,-121.59 240.44,-123.87 244.12,-129.82"/>
<text text-anchor="middle" x="164.54" y="-144.8" font-family="Times,serif" font-size="14.00">left</text>
</g>
</g>
</svg>
</svg>

<style type='text/css'>
<![CDATA[
[data-mouse-over-selected='false'] { opacity: 0.7; }
[data-mouse-over-selected='true']  { opacity: 1.0; }
]]>
</style>
<script type="application/ecmascript"><![CDATA[
document.addEventListener('DOMContentLoaded', (event) => {
  highlightEdges();
  highlightAdjacentNodes();
});
]]></script>
</svg>
